<svg width="183" height="183" viewBox="0 0 183 183" fill="none" xmlns="http://www.w3.org/2000/svg">
<path d="M165.629 140.181L159.696 118.092L136.035 29.666C135.332 27.1041 133.645 24.9234 131.343 23.5981C129.04 22.2728 126.308 21.9102 123.739 22.589L101.651 28.5222C101.099 28.662 100.57 28.8785 100.078 29.1656C99.1895 27.6838 97.9324 26.4573 96.4292 25.6054C94.926 24.7536 93.2278 24.3055 91.5 24.3046H68.625C66.5796 24.2931 64.5811 24.9176 62.9062 26.0918C61.2314 24.9176 59.2329 24.2931 57.1875 24.3046H34.3125C31.6583 24.3046 29.1127 25.359 27.2359 27.2359C25.3591 29.1127 24.3047 31.6582 24.3047 34.3125V148.687C24.3047 151.342 25.3591 153.887 27.2359 155.764C29.1127 157.641 31.6583 158.695 34.3125 158.695H57.1875C59.2329 158.707 61.2314 158.082 62.9062 156.908C64.5811 158.082 66.5796 158.707 68.625 158.695H91.5C94.1542 158.695 96.6998 157.641 98.5766 155.764C100.453 153.887 101.508 151.342 101.508 148.687V66.6234L124.168 151.261C124.749 153.395 126.015 155.279 127.772 156.623C129.529 157.966 131.679 158.694 133.89 158.695C134.759 158.682 135.624 158.562 136.464 158.338L158.552 152.405C161.109 151.717 163.289 150.045 164.615 147.754C165.942 145.463 166.306 142.74 165.629 140.181ZM109.871 64.8363L134.748 58.1882L150.332 116.162L125.455 122.81L109.871 64.8363ZM103.009 37.5293C103.192 37.1895 103.5 36.9335 103.867 36.8144L125.955 30.8812H126.313C126.623 30.8882 126.925 30.987 127.179 31.1651C127.434 31.3432 127.63 31.5926 127.743 31.882L132.532 49.8961L107.655 56.5441L102.866 38.6015C102.779 38.2387 102.83 37.8565 103.009 37.5293ZM68.625 32.8828H91.5C91.8792 32.8828 92.2428 33.0334 92.5109 33.3015C92.7791 33.5696 92.9297 33.9333 92.9297 34.3125V121.523H67.1953V34.3125C67.1953 33.9333 67.3459 33.5696 67.6141 33.3015C67.8822 33.0334 68.2458 32.8828 68.625 32.8828ZM34.3125 32.8828H57.1875C57.5667 32.8828 57.9303 33.0334 58.1984 33.3015C58.4666 33.5696 58.6172 33.9333 58.6172 34.3125V52.8984H32.8828V34.3125C32.8828 33.9333 33.0334 33.5696 33.3016 33.3015C33.5697 33.0334 33.9333 32.8828 34.3125 32.8828ZM57.1875 150.117H34.3125C33.9333 150.117 33.5697 149.967 33.3016 149.698C33.0334 149.43 32.8828 149.067 32.8828 148.687V61.4765H58.6172V148.687C58.6172 149.067 58.4666 149.43 58.1984 149.698C57.9303 149.967 57.5667 150.117 57.1875 150.117ZM91.5 150.117H68.625C68.2458 150.117 67.8822 149.967 67.6141 149.698C67.3459 149.43 67.1953 149.067 67.1953 148.687V130.102H92.9297V148.687C92.9297 149.067 92.7791 149.43 92.5109 149.698C92.2428 149.967 91.8792 150.117 91.5 150.117ZM156.336 144.112L134.248 150.046C134.065 150.1 133.873 150.117 133.683 150.096C133.493 150.075 133.31 150.016 133.143 149.922C132.976 149.829 132.83 149.703 132.713 149.553C132.596 149.402 132.51 149.229 132.461 149.045L127.671 131.102L152.548 124.454L157.337 142.397C157.391 142.575 157.407 142.763 157.385 142.948C157.363 143.133 157.303 143.311 157.21 143.472C157.116 143.633 156.99 143.773 156.84 143.883C156.689 143.993 156.518 144.071 156.336 144.112Z" fill="white"/>
</svg>
