<svg width="205" height="205" viewBox="0 0 205 205" fill="none" xmlns="http://www.w3.org/2000/svg">
<path fill-rule="evenodd" clip-rule="evenodd" d="M153.75 68.3334C153.75 64.9353 155.1 61.6764 157.503 59.2736C159.906 56.8708 163.164 55.5209 166.562 55.5209C169.961 55.5209 173.219 56.8708 175.622 59.2736C178.025 61.6764 179.375 64.9353 179.375 68.3334V155.044L166.562 174.263L153.75 155.044V68.3334ZM166.562 64.0625C165.43 64.0625 164.343 64.5125 163.543 65.3134C162.742 66.1144 162.292 67.2007 162.292 68.3334V152.456L166.562 158.862L170.833 152.456V68.3334C170.833 67.2007 170.383 66.1144 169.582 65.3134C168.782 64.5125 167.695 64.0625 166.562 64.0625Z" fill="white"/>
<path fill-rule="evenodd" clip-rule="evenodd" d="M175.104 85.4167H158.021V76.875H175.104V85.4167Z" fill="white"/>
<path fill-rule="evenodd" clip-rule="evenodd" d="M42.7083 34.1667C40.4429 34.1667 38.2703 35.0666 36.6685 36.6685C35.0666 38.2703 34.1667 40.4429 34.1667 42.7083V162.292C34.1667 164.557 35.0666 166.73 36.6685 168.332C38.2703 169.933 40.4429 170.833 42.7083 170.833H128.125C130.39 170.833 132.563 169.933 134.165 168.332C135.767 166.73 136.667 164.557 136.667 162.292V42.7083C136.667 40.4429 135.767 38.2703 134.165 36.6685C132.563 35.0666 130.39 34.1667 128.125 34.1667H42.7083ZM25.625 42.7083C25.625 38.1776 27.4248 33.8323 30.6286 30.6286C33.8323 27.4248 38.1776 25.625 42.7083 25.625H128.125C132.656 25.625 137.001 27.4248 140.205 30.6286C143.408 33.8323 145.208 38.1776 145.208 42.7083V162.292C145.208 166.822 143.408 171.168 140.205 174.371C137.001 177.575 132.656 179.375 128.125 179.375H42.7083C38.1776 179.375 33.8323 177.575 30.6286 174.371C27.4248 171.168 25.625 166.822 25.625 162.292V42.7083Z" fill="white"/>
<path fill-rule="evenodd" clip-rule="evenodd" d="M85.4167 64.0625C85.4167 62.9298 85.8667 61.8435 86.6676 61.0425C87.4686 60.2416 88.5549 59.7916 89.6876 59.7916H123.854C124.987 59.7916 126.073 60.2416 126.874 61.0425C127.675 61.8435 128.125 62.9298 128.125 64.0625C128.125 65.1952 127.675 66.2815 126.874 67.0824C126.073 67.8833 124.987 68.3333 123.854 68.3333H89.6876C88.5549 68.3333 87.4686 67.8833 86.6676 67.0824C85.8667 66.2815 85.4167 65.1952 85.4167 64.0625Z" fill="white"/>
<path fill-rule="evenodd" clip-rule="evenodd" d="M85.4167 81.1458C85.4167 80.0131 85.8667 78.9268 86.6676 78.1259C87.4686 77.325 88.5549 76.875 89.6876 76.875H123.854C124.987 76.875 126.073 77.325 126.874 78.1259C127.675 78.9268 128.125 80.0131 128.125 81.1458C128.125 82.2785 127.675 83.3648 126.874 84.1658C126.073 84.9667 124.987 85.4167 123.854 85.4167H89.6876C88.5549 85.4167 87.4686 84.9667 86.6676 84.1658C85.8667 83.3648 85.4167 82.2785 85.4167 81.1458Z" fill="white"/>
<path fill-rule="evenodd" clip-rule="evenodd" d="M85.4167 119.583C85.4167 118.451 85.8667 117.364 86.6676 116.563C87.4686 115.762 88.5549 115.312 89.6876 115.312H123.854C124.987 115.312 126.073 115.762 126.874 116.563C127.675 117.364 128.125 118.451 128.125 119.583C128.125 120.716 127.675 121.802 126.874 122.603C126.073 123.404 124.987 123.854 123.854 123.854H89.6876C88.5549 123.854 87.4686 123.404 86.6676 122.603C85.8667 121.802 85.4167 120.716 85.4167 119.583Z" fill="white"/>
<path fill-rule="evenodd" clip-rule="evenodd" d="M85.4167 136.667C85.4167 135.534 85.8667 134.448 86.6676 133.647C87.4686 132.846 88.5549 132.396 89.6876 132.396H123.854C124.987 132.396 126.073 132.846 126.874 133.647C127.675 134.448 128.125 135.534 128.125 136.667C128.125 137.799 127.675 138.886 126.874 139.687C126.073 140.488 124.987 140.938 123.854 140.938H89.6876C88.5549 140.938 87.4686 140.488 86.6676 139.687C85.8667 138.886 85.4167 137.799 85.4167 136.667Z" fill="white"/>
<path fill-rule="evenodd" clip-rule="evenodd" d="M51.2499 119.583V132.396H64.0624V119.583H51.2499ZM46.9791 111.042H68.3333C69.4659 111.042 70.5523 111.492 71.3532 112.293C72.1541 113.093 72.6041 114.18 72.6041 115.312V136.667C72.6041 137.799 72.1541 138.886 71.3532 139.687C70.5523 140.487 69.4659 140.937 68.3333 140.937H46.9791C45.8464 140.937 44.7601 140.487 43.9592 139.687C43.1582 138.886 42.7083 137.799 42.7083 136.667V115.312C42.7083 114.18 43.1582 113.093 43.9592 112.293C44.7601 111.492 45.8464 111.042 46.9791 111.042Z" fill="white"/>
<path fill-rule="evenodd" clip-rule="evenodd" d="M75.6236 61.043C76.4242 61.8439 76.874 62.9301 76.874 64.0625C76.874 65.195 76.4242 66.2811 75.6236 67.082L55.5207 87.1848L43.9596 75.6237C43.5517 75.2297 43.2263 74.7584 43.0025 74.2374C42.7787 73.7163 42.6609 73.1559 42.6559 72.5888C42.651 72.0217 42.7591 71.4594 42.9738 70.9345C43.1885 70.4096 43.5057 69.9328 43.9067 69.5318C44.3077 69.1308 44.7845 68.8136 45.3094 68.5989C45.8342 68.3842 46.3966 68.2761 46.9637 68.281C47.5308 68.286 48.0912 68.4038 48.6123 68.6276C49.1333 68.8514 49.6046 69.1768 49.9986 69.5847L55.5207 75.1069L69.5846 61.043C70.3855 60.2424 71.4716 59.7926 72.6041 59.7926C73.7366 59.7926 74.8227 60.2424 75.6236 61.043Z" fill="white"/>
</svg>
